<svg xmlns="http://www.w3.org/2000/svg" width="20" height="20" fill="none" viewBox="0 0 20 20">
  <path fill="#000" d="M4.335 2.644C6.628 4.306 9.095 7.676 10 9.484c.906-1.808 3.372-5.178 5.665-6.84C17.319 1.445 20 .517 20 3.47c0 .59-.35 4.953-.556 5.661-.713 2.463-3.315 3.091-5.629 2.711 4.045.665 5.074 2.866 2.852 5.067-4.22 4.181-6.066-1.049-6.54-2.389-.086-.245-.126-.36-.127-.263 0-.097-.041.018-.128.263-.473 1.34-2.318 6.57-6.539 2.39-2.222-2.202-1.193-4.404 2.852-5.068-2.314.38-4.916-.248-5.63-2.71C.35 8.421 0 4.058 0 3.47c0-2.953 2.68-2.025 4.335-.826Z"/>
</svg>
