<svg xmlns="http://www.w3.org/2000/svg" width="20" height="20" fill="none" viewBox="0 0 20 20">
  <path fill="#000" d="M9.08 1.477a.313.313 0 0 1 .094-.149 9.081 9.081 0 0 1 2.367 0c.043.04.074.09.093.149l.536 1.863c.136.473.476.824.879 1.02.296.14.578.304.847.488.367.254.848.37 1.324.254l1.883-.47a.286.286 0 0 1 .172.009c.211.27.406.554.582.851l.168.29c.164.292.309.597.438.91a.303.303 0 0 1-.082.156l-1.352 1.394c-.34.352-.477.824-.441 1.27.011.16.02.324.02.488 0 .164-.009.328-.02.488-.036.446.101.918.441 1.27l1.348 1.394c.043.043.07.098.082.157a8.902 8.902 0 0 1-.438.914l-.164.285c-.18.297-.375.578-.582.851a.32.32 0 0 1-.172.008l-1.883-.469c-.476-.117-.953 0-1.324.254-.27.184-.55.348-.847.489a1.63 1.63 0 0 0-.88 1.02l-.535 1.862a.313.313 0 0 1-.093.149 9.079 9.079 0 0 1-2.367 0 .346.346 0 0 1-.094-.149l-.535-1.863a1.651 1.651 0 0 0-.88-1.02 6.275 6.275 0 0 1-.847-.488 1.645 1.645 0 0 0-1.324-.254l-1.883.47a.287.287 0 0 1-.172-.009 9.138 9.138 0 0 1-.586-.851l-.164-.285a8.194 8.194 0 0 1-.437-.914.304.304 0 0 1 .082-.157l1.351-1.394c.34-.352.477-.824.442-1.27a6.71 6.71 0 0 1-.02-.488c0-.164.008-.328.02-.488a1.636 1.636 0 0 0-.442-1.27L2.338 6.844a.304.304 0 0 1-.082-.157 9 9 0 0 1 .437-.914l.164-.285c.18-.297.375-.578.586-.851a.32.32 0 0 1 .172-.008l1.883.469c.476.117.953 0 1.324-.254.27-.184.55-.348.848-.489a1.63 1.63 0 0 0 .879-1.02l.535-1.862-.004.004ZM10.357 0c-.508 0-1.012.04-1.5.113a.712.712 0 0 0-.195.063 1.55 1.55 0 0 0-.781.957l-.536 1.863a.393.393 0 0 1-.218.234 7.456 7.456 0 0 0-1.016.586.393.393 0 0 1-.312.07l-1.883-.468a1.567 1.567 0 0 0-1.215.2.564.564 0 0 0-.152.136c-.278.348-.536.71-.766 1.094l-.004.011-.172.297-.004.012c-.21.383-.398.777-.558 1.187a.674.674 0 0 0-.043.196c-.02.422.129.844.437 1.164l1.348 1.394a.388.388 0 0 1 .094.305 7.347 7.347 0 0 0 0 1.172.383.383 0 0 1-.094.305l-1.348 1.398c-.308.32-.457.742-.437 1.164a.68.68 0 0 0 .043.195c.16.41.347.805.558 1.188l.004.012.172.296.004.012c.23.383.484.75.766 1.098a.563.563 0 0 0 .152.137c.351.222.789.304 1.215.199l1.883-.469a.393.393 0 0 1 .312.07 7 7 0 0 0 1.016.586.406.406 0 0 1 .218.235l.536 1.855c.12.422.41.762.78.957a.57.57 0 0 0 .196.063 10.01 10.01 0 0 0 3 0 .71.71 0 0 0 .196-.063c.37-.191.66-.531.78-.957l.536-1.863a.393.393 0 0 1 .219-.235 7.452 7.452 0 0 0 1.015-.585.392.392 0 0 1 .313-.07l1.883.468a1.55 1.55 0 0 0 1.214-.2.563.563 0 0 0 .153-.136c.277-.348.531-.71.761-1.094l.008-.011.172-.297.004-.012c.211-.379.398-.777.559-1.188a.674.674 0 0 0 .043-.195 1.567 1.567 0 0 0-.438-1.164l-1.348-1.394a.388.388 0 0 1-.093-.305 7.309 7.309 0 0 0 0-1.172.383.383 0 0 1 .093-.305l1.348-1.394c.309-.32.457-.742.438-1.164a.674.674 0 0 0-.043-.196 9.991 9.991 0 0 0-.559-1.187l-.004-.012-.172-.297-.008-.011a9.762 9.762 0 0 0-.761-1.094.564.564 0 0 0-.153-.137 1.567 1.567 0 0 0-1.214-.199l-1.883.469a.393.393 0 0 1-.313-.07 7.067 7.067 0 0 0-1.015-.587.405.405 0 0 1-.22-.234l-.534-1.863a1.573 1.573 0 0 0-.781-.957.572.572 0 0 0-.196-.063 10.007 10.007 0 0 0-1.5-.113ZM8.17 10a2.188 2.188 0 1 1 4.375 0 2.188 2.188 0 0 1-4.375 0Zm5.625 0a3.438 3.438 0 1 0-6.876 0 3.438 3.438 0 0 0 6.876 0Z"/>
</svg>
