<svg xmlns="http://www.w3.org/2000/svg" fill="none" viewBox="0 0 181 180">
  <path fill="#000" fill-rule="evenodd" d="m110.112 172.07.051.024-.051-.024Zm56.886-62.014c-.472.119-.771.192-1.194.294v-.006c0-.081-.004-.16-.008-.236-.003-.074-.007-.144-.007-.213 0-.107.008-.209.037-.304.034-.113.34-.277.402-.237.189.126.353.289.553.488.067.067.139.139.217.214Z" clip-rule="evenodd"/>
  <path fill="#000" fill-rule="evenodd" d="M180.28 92.19c0-.9-.226-1.794-.311-2.694-.028-.294.034-.61.124-.894.108-.356.255-.662-.085-.996-.107-.107-.164-.401-.101-.543.56-1.313.215-2.637.039-3.933-.107-.787-.565-1.517-.679-2.303-.186-1.285-.927-2.507-.282-3.91.26-.56.169-1.359.05-2.01-.407-2.235-.78-4.493-1.38-6.683-.877-3.208-1.94-6.366-2.93-9.54l-.005-.02c-.022-.084-.051-.192-.108-.218-.73-.34-.77-.951-.555-1.726-.333.3-.571.503-.803.707-.073-.05-.153-.102-.226-.158.096-.272.141-.589.311-.804.288-.362.271-.673.085-1.053a99.823 99.823 0 0 1-1.533-3.146c-.583-1.245-1.035-2.558-1.703-3.752-1.607-2.852-3.304-5.653-4.972-8.471-.125-.21-.295-.39-.481-.64-.21.283-.391.527-.594.804l-.289-.17c-.401.085-.65.136-.899.187.068-.289.051-.662.226-.849.266-.277.673-.43 1.081-.673-.182-.278-.34-.572-.538-.832a820.777 820.777 0 0 0-4.706-6.05c-.17-.215-.453-.34-.713-.526-.232-.368-.447-.849-.781-1.217-6.8-7.594-14.64-13.898-23.55-18.867a89.204 89.204 0 0 0-14.979-6.61c-4.792-1.612-9.679-2.874-14.691-3.536-3.197-.425-6.404-.792-9.617-.945-3.264-.153-6.557-.17-9.815.017-8.491.492-16.762 2.15-24.778 5.042-.407.147-.774.402-1.272.668-.142.017-.464-.006-.741.102-6.511 2.478-12.632 5.71-18.38 9.648-.418.289-.956.51-.61 1.211.056.113-.148.357-.278.628-.26-.294-.435-.486-.679-.752-.888.662-1.787 1.296-2.653 1.975-9.798 7.594-17.695 16.818-23.765 27.627-.226.413-.662.701-.99 1.052-.18.198-.379.396-.503.628-3.943 7.402-6.755 15.223-8.486 23.428a87.86 87.86 0 0 0-.413 2.055c-.056.317-.118.74.334.701.21-.017.543-.447.555-.696.022-.69-.136-1.38-.147-2.077 0-.175.254-.492.412-.509.555-.05 1.143.577 1.166 1.149.022.64-.136 1.324.362 1.816.294-.034.537-.067.786-.096.023.294.108.594.068.883-.085.594-.232 1.183-.356 1.777 0 .017-.017.05-.012.062.594.9-.073 1.777-.062 2.666.011.848-.068 1.703-.102 2.393.238.385.611.725.566.98-.08.424-.436.786-.679 1.176l-.758-.883c-.288.363-.633.793-.973 1.223l-.322-.187c.17.13.362.232.492.39.147.187.243.425.356.634-.249.051-.492.12-.747.136-.118.006-.248-.085-.543-.192-.13.883-.356 1.703-.362 2.53-.034 4.52-.01 9.042-.034 13.569 0 .448-.209.895-.322 1.342v.271c.113.266.334.532.322.793-.215 5.409 1.658 10.384 3.174 15.437.023.057.08.108.113.164.611-.413.26-2.246-.52-2.795 0-.046-.017-.119 0-.125.877-.441 1.205-1.03.616-1.952-.096-.159.017-.447.13-.696.402.673 1.449 1.007.968 2.065a2.78 2.78 0 0 1-.272.453c-.107.161-.23.317-.348.467l-.02.025c.192.096.384.187.671.322l.003.001c-.051.543-.012 1.194-.198 1.777-.323 1.007-.153 1.935.124 2.897.125.442.096.923.187 1.375.085.419.311.691.803.787.605.124.9.866.526 1.324-.317.385-.203.685-.045 1.047 2.466 5.631 5.448 10.967 9.006 15.981 5.928 8.353 13.045 15.528 21.411 21.447 1.42 1.008 2.846 2.015 4.35 2.875.894.509 1.947.725 2.925 1.075.147.051.368.114.396.215.176.646.747.827 1.233 1.064a707.83 707.83 0 0 0 9.39 4.544c.369.176.827.153 1.245.232.566.102 1.132.227 1.703.306.277.034.566.017.849-.023.565-.073 1.131-.215 1.703-.26.175-.017.367.17.554.266-.147.175-.266.408-.453.515-.18.108-.435.068-.65.125-.26.062-.51.164-.758.249l.017.232c.735.249 1.476.498 2.212.741.47.158.939.328 1.42.458.231.057.514.108.718.023.187-.074.294-.34.441-.515-.22-.113-.43-.255-.662-.34-.192-.068-.407-.062-.61-.096.197-.158.384-.436.599-.458 1.2-.13 1.318-.023 1.805 1.177.045.119.209.26.322.266.107 0 .22-.159.334-.244.17-.124.345-.249.515-.367.084.226.248.458.237.679-.011.254-.175.498-.311.843 1.233.345 2.404.775 3.61.979 3.28.566 6.573 1.103 9.882 1.522 2.099.26 4.225.294 6.336.442.192.017.373.113.56.175h6.24c.26-.062.508-.164.769-.175 3.518-.148 7.009-.453 10.465-1.194 1.25-.272 2.557-.312 3.796-.612 1.719-.413 3.4-.979 5.097-1.482.085-.023.164-.085.254-.091 3.524-.322 6.675-1.845 9.9-3.118 3.931-1.556 7.744-3.356 11.387-5.523 4.837-2.875 9.447-6.038 13.679-9.745a92.23 92.23 0 0 0 3.213-2.914c.238-.232.294-.657.458-1.058.815.328 1.12-.549 1.629-1.008a15.22 15.22 0 0 0 1.449-1.522c.288-.356.441-.82.724-1.188.345-.447.684-.962 1.148-1.251 1.341-.832 2.172-2.06 2.919-3.384a.706.706 0 0 0 .068-.26c.011-.345-.068-.713.034-1.025.102-.311.373-.565.69-1.024.119.447.209.792.305 1.166 6.415-8.251 11.133-17.401 14.307-27.412-.464-.158-.583.068-.707.407-.085.232-.323.408-.583.719-.226-1.392.136-2.218 1.143-2.773.107.159.237.34.413.589.107-.227.203-.368.243-.527.617-2.523 1.324-5.025 1.771-7.577.13-.73.379-1.409.509-2.122.096-.549.085-1.115.113-1.596.17-.786.345-1.511.475-2.241.113-.668.362-1.381.232-2.003-.283-1.358.475-2.552.379-3.888-.096-1.313.198-2.654.198-3.978Zm-15.087-4.748c-.057.04-.108.08-.164.113v.006c.056-.04.107-.08.164-.119Zm7.184-26.506.029.022h-.029c-.01.383-.026.76-.041 1.146l-.004.094c-.628-.323-.628-.742-.436-1.16.006-.012.012-.023.029-.029.079-.05.3-.034.452-.05v-.018c-.339-.21-.684-.43-1.188-.741.374-.175.741-.51 1.002-.436.322.085.684.464.786.798.153.47-.272.43-.6.374Zm-169.17 5.58c-.216.509-.04.9.548 1.182.271-.526.436-.979-.08-1.358-.078-.057-.418.062-.469.175Zm4.972-5.801c.011-.181-.278-.385-.43-.577-.181.17-.357.345-.645.617.288.277.47.452.65.622.153-.22.413-.436.425-.662ZM5.605 76.747c.418.373.452.916.085 1.63-.68-.323-.69-.708-.085-1.63ZM4.179 89.134c-.356-.283-.718-.73-1.227-.266-.395.35-.085.668.152.91l.012.013c.39.401.464.786.158 1.267-.271.43-.17.832.09 1.262.153.25.153.606.176.917.034.487.028.979.05 1.46.012.158.103.311.091.458-.073.906.125 1.064 1.177.713-.198-.52-.396-1.035-.64-1.658.606-.175.567-.667.391-1.216-.17-.56-.373-1.12-.458-1.698-.062-.413-.096-.957.119-1.256.305-.42.22-.651-.09-.906Zm.187 22.659c.068.068.136.13.204.198l.786-.906c-.125-.068-.272-.226-.368-.198-.447.13-.707.413-.622.906Zm.452-5.065c-.192.232-.452.436-.56.696-.073.181.074.447.12.673h.27c.142-.401.29-.809.43-1.211-.084-.051-.17-.107-.26-.158Zm-.101-1.138c.147.504.616.402.973.34.147-.028.39-.311.362-.43-.102-.509-.289-1.002-.447-1.511l-.826.249v-1.104c.215-.045.385-.079.577-.118-.006-.165.011-.3-.023-.425-.175-.69-.373-1.369-.554-2.06-.051-.215-.068-.441-.102-.668-.311.085-.679.091-.928.261-.6.413-.905 1.664-.6 2.343.052.107.317.192.47.175.153-.023.289-.181.436-.283l.203.085c-.079.407-.158.815-.226 1.222-.028.193-.107.515-.034.561.549.305.572.854.719 1.363Zm1.137-38.265c.101.016.198.028.3.04.158-.38.367-.748.44-1.144.035-.153-.22-.385-.384-.543-.028-.028-.334.107-.34.18-.028.488-.016.98-.016 1.467Zm.752-2.796c-.028.413-.05.82-.08 1.234h.001c.124.011.249.022.373.028v-1.245l-.294-.017Zm.82 50.772h.25v-1.533h-.25v1.533ZM7.03 66.906c1.019.198 1.132.119 1.205-.68.023-.226.074-.446.068-.673 0-.13-.08-.26-.124-.39-.136.062-.34.08-.396.18-.26.488-.481.997-.753 1.563ZM9.576 55.27c.05.096.317.198.419.153h-.006c.317-.13.305-.781 0-1.155-.481.193-.628.538-.413 1.002Zm22.226 24.65c-.028.057.255.385.34.363.192-.046.35-.232.616-.43-.238-.204-.441-.442-.498-.408a1.125 1.125 0 0 0-.458.475Zm4.005 43.212c.04.17.08.345.119.521l.764-.306c-.04-.124-.074-.249-.108-.373-.26.051-.52.102-.775.158Zm8.027-72.474c.04-.594.408-.905.905-1.103-.096.554-.316.99-.905 1.103Zm1.058 7.023c.238-.266.498-.51.702-.798.05-.074-.023-.334-.12-.402-.084-.062-.35-.028-.4.05-.199.295-.334.623-.493.94.102.068.204.142.311.21Zm13.056 109.857c-.215-.164-.548-.187-.837-.266-.011.068-.028.13-.045.198.189.231.373.462.56.697l.113.141.232-.097c0-.232.09-.582-.022-.673Zm-.463 2.139c-.096-.051-.198-.09-.453-.204-.073.266-.243.595-.17.668.289.277.64.498.996.674.21.101.475.101.713.113.17.005.34-.046.509-.068-.108-.17-.181-.402-.334-.504-.402-.255-.837-.458-1.261-.679ZM49.672 60.341c.221.17.419.39.662.487.108.045.317-.153.481-.243-.232-.21-.458-.413-.77-.69-.18.214-.276.328-.373.446ZM56.28 172.82c.758.407 1.561.373 2.364.22.408-.084 1.047-.979.843-1.205-.226-.249-.656-.385-1.012-.43-.775-.085-1.584.028-2.337-.141-.961-.215-.961-.295-1.487.718.565.289 1.103.555 1.629.838Zm10.256-8.715c-.577-.306-1.058-.555-1.607-.843-.164.571.125.849.515.99.345.119.741.17 1.092-.147Zm-.39 7.668c.254-.311.582-.572.543-.691-.097-.243-.39-.577-.594-.571-.266.006-.527.306-.787.481.243.226.487.453.837.781ZM64.651 61.949c.011-.13-.198-.278-.311-.42-.136.165-.345.306-.385.493-.034.13.159.311.328.6.181-.311.357-.487.368-.673Zm-4.395 109.229c.152.141.305.288.565.532.306-.295.52-.504.736-.713-.204-.097-.425-.3-.594-.261-.255.057-.475.283-.707.442Zm3.405-7.521c-.492-.498-1.29-.311-1.867.594.402-.09.617-.175.832-.181.26 0 .526.074.786.096.142.006.283-.028.424-.045-.056-.158-.068-.357-.175-.464Zm1.312 8.856c.04-.051.25.045.38.062.588.097 1.069-.118 1.544-.498-.945-.26-1.816-.515-2.693-.718-.232-.057-.554-.034-.735.09-.419.283-.781.657-1.335 1.143.435.131.809.374 1.08.295.577-.181 1.267.192 1.76-.374Zm8.695-10.214c.17.113.334.311.504.317.17 0 .333-.204.65-.425-.35-.147-.549-.305-.713-.277-.164.028-.294.249-.44.385Zm2.484-106.456c.362.3.661.56.961.814.074-.096.147-.186.22-.277-.299-.232-.604-.464-.904-.69-.012-.006-.04.017-.277.153Zm16.75 122.454c.203.226.334.367.458.509.153-.204.362-.385.424-.611.029-.096-.232-.283-.362-.425v.001c-.153.153-.3.3-.52.526Zm17.14-6.259c.102.758.515.934 1.341.634l-1.221-.578-.051-.024-.027-.012-.042-.02Zm2.337-160.935c.452-.062.905-.113 1.352-.215.039-.006.011-.323.017-.498-.493.107-.979.21-1.466.317.029.13.063.266.097.396Zm2.619.594a7.503 7.503 0 0 0-1.013.73c-.039.034.096.266.221.566l1.153-.944.001-.001c-.125-.125-.323-.374-.362-.35Zm-.6 159.079c.317.283.622.588.968.832.056.039.288-.164.61-.357-.446-.379-.758-.673-1.108-.9-.046-.033-.306.278-.47.425Zm1.369-42.04c.085-.017.164-.029.249-.046.045-.266.125-.532.125-.798 0-.079-.283-.249-.346-.209-.181.096-.463.306-.441.424.04.227.266.425.413.629Zm5.799-121.73c.158.187.39.317.594.47.073-.063.152-.12.226-.182-.13-.232-.221-.498-.402-.673-.107-.113-.351-.085-.532-.125.034.176.017.39.114.51Zm1.68 48.197c-.017.023.13.175.277.362.215-.277.396-.48.532-.713.022-.04-.153-.192-.238-.3-.192.215-.396.425-.571.651Zm2.562-36.964c.017.13.266.35.3.35.373-.254.73-.537 1.092-.814l-.311-.289c-.589-.017-1.143.402-1.081.753Zm3.966-.64c.164.017.334.017.492-.022.034-.012.062-.272 0-.351-.113-.153-.306-.374-.441-.357-.515.063-1.024.198-1.533.312-.006.056-.012.113-.012.17.187.039.374.096.566.124.311.05.617.096.928.124Zm.763 40.213c.289.583 1.403.64.956 1.664-.786-.142-1.391-1.138-.956-1.664Zm.815 5.155c.141.227.334.425.504.628.101-.09.305-.232.288-.271-.113-.244-.272-.459-.492-.81-.164.25-.328.414-.3.453Zm7.79-38.537c.062.096.413.113.56.028.271-.153.498-.396.735-.617 0-.006-.113-.198-.187-.22-.39-.085-.78-.142-1.289-.232 0 0-.181.096-.17.14.09.312.175.64.351.9Zm3.779 1.42c-.085.074-.17.153-.255.226-.079.69.221.957 1.126.697-.351-.374-.611-.646-.871-.923Zm2.013 1.873c.125-.045.255-.254.278-.407.09-.504-.43-1.37-.99-1.647-.317.707-.227 1.38.265 1.879.108.107.329.215.447.175Zm2.693 73.34c.085.029.283-.085.334-.186.068-.131.039-.306.056-.47-.017-.17.029-.402-.062-.515-.096-.108-.384-.193-.498-.13-.271.158-.13 1.205.17 1.301Zm3.649-71.857c-.238-.142-.424-.323-.521-.289-.209.085-.373.277-.56.43.153.187.306.38.464.572.176-.204.357-.408.617-.713Zm-.696 78.54c-.119.323-.43.77-.317.951.215.34.628.662 1.194.396-.204-.452-.396-.866-.583-1.279l-.294-.068Zm2.693 44.016c.209.022.43.056.633.022.176-.034.34-.147.515-.226l-.034-.192c-.17-.023-.345-.085-.509-.057a2.103 2.103 0 0 0-.594.221c-.034.017-.017.232-.011.232Zm.871-2.377c.362-.804.69-1.5.973-2.213.039-.09-.085-.311-.192-.373-.091-.045-.3.006-.391.09-.616.578-.797 1.579-.39 2.496Zm-.475-119.234c.186.164.379.458.565.458.413 0 .826-.153 1.239-.249.063-.011.113-.056.187-.09l-.249-.306.071-.16h.001l.318-.711c-.305-.023-.616-.08-.922-.057-.119.011-.215.204-.333.3-.148.125-.312.226-.453.357-.153.141-.283.305-.424.458Zm1.85 6.015c0 .142.209.397.339.402.549.028 1.03-.164 1.544-.735-.645-.04-1.103-.102-1.555-.074-.125.006-.328.266-.328.407Zm23.566 47.496c.193-.334.204-.775.295-1.171-.351-.068-.702-.148-1.053-.216-.203-.033-.407-.09-.605-.079-.209.012-.419.097-.628.142.062.22.074.48.204.645.102.124.351.136.492.181.079.464.153.883.249 1.466.475-.425.854-.64 1.046-.968Zm-1.318-3.254c.255-.136.509-.323.679-.555.062-.084-.124-.345-.26-.69-.351.396-.594.668-.832.94.142.107.345.339.413.305Zm-.333-1.675c.328-.368.831-.679.492-1.183-.113-.17-.888-.164-.99-.005-.311.492.152.826.498 1.188Zm-1.285-5.16a.416.416 0 0 0-.084.248c.005.272-.068.668.079.787.249.203.633.294.967.3.085 0 .187-.476.277-.73-.028-.012-.051-.017-.079-.029 0-.113.04-.243-.006-.334-.175-.328-.379-.64-.565-.956-.198.238-.402.47-.589.713Zm-3.812 20.773c.237.243.475.492.769.804.266-.214.417-.341.557-.46l.026-.021c-.306-.21-.6-.447-.928-.617-.074-.034-.277.187-.424.294Zm.639 8.2c.187-.391.317-.668.447-.945-.193-.062-.441-.238-.555-.176-.39.227-.379.566.108 1.121Zm-1.256-30.366c.062-.057.181-.119.175-.164-.09-.51.266-.742.583-1.019a.571.571 0 0 0 .187-.345c.011-.141-.017-.35-.113-.413-.08-.057-.334-.006-.402.08-.424.525-.56 1.148-.617 1.787.063.029.125.051.187.074Zm1.335 10.344c-.028.368-.034.736-.107 1.093-.029.13-.215.226-.215.226-.385 0-.6-.056-.764.011-.532.215-.826-.192-.809-.503.017-.311.402-.606.639-.9.017-.023.125.034.193.034.349.017.705.028 1.06.04h.003Zm-.735 5.122a3.674 3.674 0 0 0-.741-.572c-.051-.028-.221.147-.334.232.22.221.441.436.888.883.096-.266.232-.492.187-.543Zm1.42-.617c-.159-.175-.917-.141-1.024.034-.289.475-.419 1.07-.532 1.63-.045.215.141.475.221.713.147-.193.339-.368.424-.583.271-.68.588-.775 1.142-.317.227.181.481.34.719.515.073-.074.147-.142.221-.21-.379-.605-.696-1.261-1.171-1.782Zm1.227-7.08c-.498-.005-1.165-.186-1.069.386.073.44-.147.713-.153 1.063-.005.38.051.764.079 1.15.114.01.227.022.345.028l.798-2.626Zm-.294-8.267c-.153.402-.322.78-.43 1.183-.051.192.028.424.045.64.244-.04.549 0 .719-.137.548-.435.407-1.148-.334-1.686Zm.351 10.82c-.136.17-.278.34-.436.543-.724-.011-1.007.204-.792.657.147.3 1.437.713 1.697.514a.536.536 0 0 0 .187-.396c-.011-.265-.045-.548-.158-.78-.102-.21-.329-.363-.498-.538Zm-.911 4.018c.158-.125.407-.232.452-.39.034-.136-.164-.335-.339-.651-.209.288-.396.44-.407.605-.012.141.186.289.294.436Zm-.962 5.02c-.096.175-.192.508-.107.593.384.385.831.702 1.312 1.093.357-.266.611-.459.866-.651-.181-.198-.328-.442-.543-.572-.317-.18-.674-.288-1.024-.401-.164-.057-.475-.12-.504-.063Zm2.269-1.353c-.164.283-.34.464-.306.549.096.22.283.401.43.6.091-.165.255-.334.243-.487-.011-.181-.181-.345-.367-.662Zm-.396-.572c.017.068.028.13.045.193.402.079.803.203 1.205.22.464.017.583-.283.418-.684-.107-.266-.265-.51-.367-.781-.079-.193-.113-.589-.159-.589-.345 0-.701.051-1.035.158-.113.04-.237.3-.215.436.017.136.187.289.328.368.193.108.419.147.628.22-.005.063-.005.12-.011.182-.13.04-.26.074-.385.113-.153.051-.3.113-.452.164Zm-.289-26.67c-.237-.17-.407-.357-.475-.329-.255.125-.475.323-.713.493.13.158.26.322.391.486.231-.186.458-.373.797-.65Zm.651 3.31c-.26.142-.458.374-.741.011-.509-.65-.945-.758-1.68-.328-.193.113-.227.498-.334.753.232.04.469.13.696.102.22-.023.424-.17.661-.278.193.968.181 1.766-.905 2.168.034.096.068.192.097.288.582.068 1.159.176 1.742.187.13 0 .413-.39.373-.504-.317-.797-.215-1.414.532-1.924.141-.096.136-.424.198-.645-.215.051-.453.063-.639.17Zm-3.768-9.637c-.17-.102-.339-.283-.509-.278-.13 0-.39.3-.362.346.102.192.266.435.453.475.164.04.384-.153.582-.249-.056-.096-.107-.192-.164-.294Zm-2.115 20.536c-.029.057.311.408.458.396.203-.017.39-.254.696-.486-.306-.238-.555-.527-.645-.481-.215.102-.408.34-.509.571Zm.831 15.523c.091-.193.255-.374.26-.566.017-.3-.073-.606-.13-1.013-.582-.074-1.199.436-.967.996.107.266.549.39.837.583Zm.051-30.129c-.006-.124-.192-.243-.294-.367-.125.141-.294.26-.362.424-.113.277-.159.577-.232.866-.028.068-.062.141-.091.215.289-.045.719.011.832-.153.17-.249.147-.65.147-.985Zm-1.714-13.677c.192-.532.011-.68-.549-.759 0 .776-.028 1.511.017 2.236.011.249.164.526.34.718.35.396.729.09.984-.141.102-.085.011-.566-.142-.702-.13-.113-.469.011-.859.04.056-.425.045-.94.209-1.392Zm-1.069 36.783c.079.272.322.487.611.866.266-.3.543-.543.515-.594-.17-.278-.419-.51-.64-.759-.175.17-.52.385-.486.487Zm1.024 6.734c.062-.136.062-.306.085-.441-.034-.193-.017-.408-.119-.538-.187-.249-.413-.543-.685-.628-.152-.051-.548.249-.605.458-.062.221.13.52.238.776.067.158.186.3.282.447.13.203.266.407.402.61.136-.226.289-.446.402-.684Zm.186-13.966c-.232.379-.458.588-.418.73.056.232.283.419.435.628.176-.175.476-.34.487-.52.005-.21-.243-.43-.504-.838Zm-.158-17.04c-.221-.158-.424-.39-.668-.452-.379-.096-.741.09-.661.515.045.255.345.588.582.64.21.039.492-.255.741-.402 0-.102.006-.199.006-.3Zm-1.211-11.34h.238v-1.449c-.085 0-.164 0-.249-.005-.232.492-.26.979.011 1.454Zm-.486-2.931c-.204.328-.577.662-.255 1.12.832-.055.88-.634.949-1.46l.007-.085c-.322.193-.594.255-.701.425Zm-.209 13.038c.169-.062.48-.181.48-.181-.067-.3-.181-.589-.282-.883-.142.04-.283.08-.425.113l.001.001c.073.317.146.633.226.95Zm.916-14.12c-.345-.231-.696-.457-1.126-.735-.158.232-.237.357-.322.481.368.227.73.459 1.114.651.04.017.221-.26.334-.396Zm-1.822 45.72c-.209.045-.469.209-.548.39-.136.306-.164.668-.204 1.007 0 .051.164.125.328.255.306-.294.634-.56.888-.877.102-.119.113-.408.034-.538-.085-.136-.345-.266-.498-.237Zm.085 3.469c.068.045.261-.102.538-.227-.317-.288-.504-.487-.73-.634-.028-.022-.238.232-.362.357.181.175.345.38.554.504Zm-1.889-21.606c.141-.023.322.209.605.407l-.004.003.004.003c-.3.18-.481.379-.639.356-.17-.022-.322-.237-.481-.373l.003-.003-.003-.003c.17-.136.328-.362.515-.39Zm-.905-26.977c.102-.005.209-.01.311-.017.233.162.293.36.293.573.001.23-.07.476-.07.706 0 .027.001.053.003.08v.005c0 .046-.186.17-.254.147-.108-.022-.266-.141-.272-.226a7.833 7.833 0 0 1-.016-.531c-.001-.246.005-.492.005-.737Zm-4.78 97.21c.249-.447.52-.883.82-1.296.028-.04.26.068.379.102l-.002.005.002.001c-.272.571-.492 1.041-.718 1.511-.165-.114-.481-.3-.481-.317l.001-.003-.001-.003Zm1.318-96.615.186-.238c.312.147.713.232.906.475.069.09.087.221.087.366.001.155-.02.328-.021.483l.001.051v.006c-.084.022-.175.05-.26.073-.3-.401-.599-.809-.899-1.21l.002-.003-.002-.003Zm2.195-9.49c.124-.006.333.249.362.407.021.125.041.255.041.38 0 .27-.093.511-.471.605-.26.062-.532.09-.854.147a1.356 1.356 0 0 1-.115-.54c-.002-.56.394-1 1.037-1Zm-.21 68.875c.136-.346.379-.645.583-.962.09.068.175.13.26.198.102.073.243.124.311.22.278.408.549.815.798 1.245a.382.382 0 0 1 .034.172c.001.094-.022.191-.062.225-.096.073-.3.084-.419.033a8.369 8.369 0 0 1-1.177-.622c-.144-.098-.336-.343-.334-.471 0-.014.002-.027.006-.038Zm2.059-10.322c.136-.04.323-.068.43 0 .408.249.792.537 1.239.843l-.004.003.004.003c-.447.277-1.589-.114-1.714-.55a.353.353 0 0 1-.01-.09c-.001-.093.026-.2.055-.21Zm1.415 27.1c.062-.192.266-.345.407-.514.107.151.296.308.294.448v.01c-.011.175-.192.345-.385.645-.15-.265-.324-.439-.322-.553 0-.013.002-.024.006-.036Zm.695-13.807c.034-.114.34-.278.402-.238.255.17.464.407.775.707l-.005.001.005.005c-.475.119-.775.192-1.199.294v-.011c0-.081-.004-.16-.008-.236-.003-.074-.007-.144-.007-.213 0-.11.008-.213.037-.309Zm1.211-10.64c.119-.112.3-.339.345-.316.238.136.441.334.764.594l-.005.002.005.004c-.249.119-.413.254-.481.22-.226-.135-.424-.328-.628-.498l.003-.003-.003-.002Zm1.488 10.187c.447.515.797.917 1.154 1.324l-.003.002.003.004c-.255.141-.679.452-.736.402-.328-.334-.588-.736-.825-1.144a.033.033 0 0 1-.004-.017c-.005-.076.203-.283.411-.571Zm1.556.741c.09-.039.175-.073.26-.113.136.289.266.572.396.855h-.002l.002.005c-.113.046-.26.147-.328.113-.254-.133-.413-.314-.412-.547a.663.663 0 0 1 .084-.313Zm-.204-15.783c.079-.254.198-.543.396-.701.147-.12.526-.159.65-.051.244.21.431.476.43.797 0 .12-.026.25-.085.386-.311-.04-.599-.046-.871-.12-.192-.056-.52-.248-.52-.305v-.006Zm3.049 26.575c.113-.074.277-.068.413-.102.019.102.079.224.078.317a.14.14 0 0 1-.01.062c-.255.555-.532 1.092-.803 1.641-.214-.372-.318-.679-.318-.943-.002-.389.218-.688.64-.975Zm-.158-2.875c.192-.09.418-.305.565-.26.408.13.775.368 1.16.56l-.002.005.002.001c-.04.107-.079.209-.124.311a119.71 119.71 0 0 0-1.539-.3c-.023-.107-.04-.209-.062-.311l.001-.001-.001-.005Zm-1.137-8.047c.158-.209.441-.322.627-.447.634.266 1.092.543 1.109 1.183.006.373.147.537.498.684.554.238 1.075.561 1.584.895.141.09.17.35.249.537l-.002.001.002.005c-.232.056-.515.221-.685.147-.43-.187-.809-.481-1.199-.741-.243-.164-.469-.47-.713-.487-.797-.051-1.103-.589-1.363-1.194-.06-.137-.136-.337-.135-.472a.18.18 0 0 1 .028-.111Zm2.449-4.448c.249.362.515.719.735 1.098.003.004.005.01.004.017.006.063-.181.245-.388.532-.317-.504-.566-.849-.747-1.222-.002-.004-.002-.009-.002-.014-.007-.074.261-.274.398-.411Zm-.453-2.365c.198-.204.481-.442.741-.447.391-.012.815.102 1.171.277.3.147.51.47.764.713l-.003.002.003.004c-.294.186-.594.379-.877.56-.577-.198-1.057-.317-1.487-.538-.152-.076-.322-.423-.32-.536 0-.016.002-.028.008-.035Zm.679-8.24c.068-.119.119-.243.159-.373.237-.719.492-.838 1.205-.543.209.084.413.18.633.237.497.116.858.52.859.98a.898.898 0 0 1-.033.248c-.068.244-.221.52-.419.645-.096.063-.401-.18-.593-.317-.193-.13-.363-.294-.572-.464-.203.602-.466 1.154-.463 1.714.002.28.071.563.248.856a.115.115 0 0 1 .016.062c.002.11-.103.286-.146.419-.153-.057-.351-.068-.452-.176-.471-.47-.726-1.264-.728-2.02-.002-.464.09-.914.286-1.268Zm2.24 4.2c.136-.012.379-.069.396-.023.147.305.255.628.34.95.002.006.003.012.002.019.004.068-.123.176-.325.474-.118-.238-.203-.351-.232-.481-.079-.306-.124-.623-.181-.934h.001l-.001-.006Zm0-11.68c.221.124.312.146.368.209l.089.09c.35.36.702.723 1.02 1.11.016.02.022.056.022.1.002.125-.057.314-.113.335-.181.062-.492.102-.588 0a6.588 6.588 0 0 1-.877-1.171.226.226 0 0 1-.026-.12c-.002-.142.075-.341.105-.554Zm1.013.384c.3-.407.645-.787.99-1.154.01 0 .191.155.411.346l.064.055-.003.004.003.002c-.401.447-.735.815-1.069 1.183-.139-.145-.409-.393-.397-.429a.009.009 0 0 1 .001-.007Zm1.109-3.033c.062-.181.334-.289.503-.43.147.18.385.345.419.543.014.09.021.177.021.263.005.567-.28 1.063-.689 1.61-.283-.427-.395-.822-.396-1.202a2.362 2.362 0 0 1 .142-.784Zm-8.152 16.422c-.073.04-.147.085-.221.13-.164-.215-.35-.413-.48-.645-.56-.973-1.154-1.93-1.624-2.948a.919.919 0 0 1-.077-.39c-.001-.298.099-.64.207-.968 1.24 1.391 1.712 3.084 2.183 4.773l.012.042-.001.001.001.005Zm-7.982-53.856c-.164.119-.747.017-.786-.096a.854.854 0 0 1-.043-.265c-.003-.437.396-.667.829-.916l.023-.014c.166.264.281.517.28.747.002.203-.085.387-.303.544Z" clip-rule="evenodd"/>
</svg>